<?xml version="1.0" encoding="UTF-8"?>
<svg class="svg-plus" width="128" height="128" version="1.1" viewBox="0 0 33.867 33.867">
	<g>
		<g>
			<path class="svg-path-colour-back-mid" d="m16.613 0c-1.1694-2.8848e-4 -2.1175 0.94778-2.1172 2.1172v29.634c7.9e-4 1.1686 0.94854 2.1155 2.1172 2.1152 1.1679-7.89e-4 2.1144-0.94735 2.1152-2.1152v-29.634c2.89e-4 -1.1686-0.94659-2.1164-2.1152-2.1172z"/>
		</g>
		<g transform="rotate(90 24.467 18.667)">
			<path class="svg-path-colour-back-mid" d="m22.735 9.2674c-1.1694-2.885e-4 -2.1175 0.94778-2.1172 2.1172v29.634c7.9e-4 1.1686 0.94854 2.1155 2.1172 2.1152 1.1679-7.89e-4 2.1144-0.94735 2.1152-2.1152v-29.634c2.89e-4 -1.1686-0.94659-2.1164-2.1152-2.1172z"/>
		</g>
	</g>
</svg>
